

Release info:

General
Format                                   : Matroska
Format version                           : Version 2
File size                                : 461 MiB
Duration                                 : 1h 35mn
Overall bit rate                         : 676 Kbps
Movie name                               : Dehraadun Diary 2013 DVDScr Hindi

Video
ID                                       : 1
Format                                   : MPEG-4 Visual
Format profile                           : Advanced Simple@L5
Format settings, BVOP                    : Yes
Format settings, QPel                    : No
Format settings, GMC                     : No warppoints
Format settings, Matrix                  : Default (H.263)
Codec ID                                 : V_MS/VFW/FOURCC / XVID
Codec ID/Hint                            : XviD
Duration                                 : 1h 35mn
Bit rate                                 : 534 Kbps
Width                                    : 592 pixels
Height                                   : 272 pixels
Display aspect ratio                     : 2.2:1
Frame rate mode                          : Constant
Frame rate                               : 25.000 fps
Color space                              : YUV
Chroma subsampling                       : 4:2:0
Bit depth                                : 8 bits
Scan type                                : Progressive
Compression mode                         : Lossy
Bits/(Pixel*Frame)                       : 0.133
Stream size                              : 365 MiB (79%)
Title                                    : Dehraadun Diary 2013 DVDScr Hindi
Language                                 : Hindi
Default                                  : Yes
Forced                                   : No

Audio
ID                                       : 2
Format                                   : MPEG Audio
Format version                           : Version 1
Format profile                           : Layer 3
Mode                                     : Joint stereo
Mode extension                           : MS Stereo
Muxing mode                              : Header stripping
Codec ID                                 : A_MPEG/L3
Codec ID/Hint                            : MP3
Duration                                 : 1h 35mn
Bit rate mode                            : Constant
Bit rate                                 : 128 Kbps
Channel(s)                               : 2 channels
Sampling rate                            : 44.1 KHz
Compression mode                         : Lossy
Stream size                              : 87.3 MiB (19%)
Title                                    : Dehraadun Diary 2013 DVDScr Hindi
Language                                 : Hindi
Default                                  : Yes
Forced                                   : No



Source:
credit to original movie ripper DesiHome (Thanks)

IMDB Info:

In the era of large scale corruption, where everyone seated on a chair that holds power is neck deep in corruption, exist unlikely heroes.
Release Date
4 Jan 2013
Genre: Thriller
Producer: Anitta Dhawan Nandwani
Yatin Nandwani
Star Cast
Adhyayan Suman.... Aakash Sharma
Rohit Bakhshi.... Anshul Sharma
Ragini Nandwani.... Priti Thakur
Ashwini Kalsekar.... Advocate Dipali
Rati Agnihotri.... Neelima Sharma
Neelima Azim.... Mrs Thakur
Vishal Bhonsle.... Vishesh Thakur
Sunil Godse.... Lawyer
Gaurav Chopra.... Anshul's Friend
Kunwar Aziz.... MLA Sadgun Thakur
Story / Writers: Aseem Arora
Language: Hindi




Screen Shot:
 
http://www.shotpix.com/images/07445739519859084210.png 
http://www.shotpix.com/images/84822847170264252111.png 
http://www.shotpix.com/images/36383434920569163550.png 
http://www.shotpix.com/images/02444791616261719333.png 
http://www.shotpix.com/images/43040219467355721645.png 
http://www.shotpix.com/images/22922988999862018046.png